<?xml version="1.0" encoding="UTF-8" standalone="no"?>
<svg
   xmlns:dc="http://purl.org/dc/elements/1.1/"
   xmlns:cc="http://creativecommons.org/ns#"
   xmlns:rdf="http://www.w3.org/1999/02/22-rdf-syntax-ns#"
   xmlns:svg="http://www.w3.org/2000/svg"
   xmlns="http://www.w3.org/2000/svg"
   viewBox="0 0 414.21634 150"
   height="150"
   width="414.21634"
   xml:space="preserve"
   version="1.1"
   id="svg2"><metadata
     id="metadata8"><rdf:RDF><cc:Work
         rdf:about=""><dc:format>image/svg+xml</dc:format><dc:type
           rdf:resource="http://purl.org/dc/dcmitype/StillImage" /><dc:title></dc:title></cc:Work></rdf:RDF></metadata><defs
     id="defs6" /><g
     transform="matrix(1.25,0,0,-1.25,0,149.99999)"
     id="g10"><g
       transform="scale(0.07788364,0.07788364)"
       id="g12"><path
         id="path14"
         style="fill:#6b6f76;fill-opacity:1;fill-rule:nonzero;stroke:none"
         d="m 88.2617,538.762 -44.4414,0 c -13.0351,0 -22.289,10.59 -20.5547,23.492 0,0 17.5313,59.434 42.2188,78.297 24.7383,18.773 64.6876,36.566 136.6676,36.566 78.164,0 130.973,-11.519 158.465,-34.609 27.492,-23.043 41.196,-66.953 41.196,-131.727 l 0,-285.922 c 0,-12.988 -10.633,-23.718 -23.711,-23.718 l -21.223,0 c -13.035,0 -22.555,10.589 -21.219,23.629 l 0.356,3.332 c 1.379,12.988 2.179,23.668 1.781,23.847 -0.402,0.133 -9.344,-6.051 -19.934,-13.75 0,0 -60.101,-43.91 -140.269,-43.91 C 59.168,194.289 0,241.852 0,337.051 c 0,56.64 13.2148,95.738 39.7266,117.32 26.4726,21.578 74.4294,32.391 143.7424,32.391 82.433,0 131.859,-16.203 148.187,-48.633 0.844,0.312 1.469,11.211 1.469,24.25 l 0,9.43 c 0,13.082 -0.848,34.429 -1.957,47.382 0,0 -5.34,64.77 -20.109,80.653 -14.727,15.836 -46.938,23.801 -96.672,23.801 -84.395,0 -126.5667,-23.758 -126.5667,-71.137 0,-2.313 0.1328,-6.852 0.4414,-13.746 M 198.684,433.238 c -52.629,0 -86.93,-5.558 -102.7699,-16.687 -15.8789,-11.121 -23.8438,-35.012 -23.8438,-71.582 0,-37.989 7.8281,-63.078 23.5781,-75.399 15.7036,-12.191 47.6016,-18.379 95.6916,-18.379 96.808,0 145.211,29.45 145.211,88.309 0,36.969 -9.391,61.84 -28.207,74.648 -18.774,12.774 -55.344,19.09 -109.66,19.09" /><path
         id="path16"
         style="fill:#6b6f76;fill-opacity:1;fill-rule:nonzero;stroke:none"
         d="m 528.906,646.531 c 0,13.032 10.723,23.711 23.711,23.711 l 21.223,0 c 13.078,0 23.531,-10.679 23.308,-23.711 l -0.535,-23.179 c -0.308,-13.079 -0.086,-24.071 0.27,-24.469 0.355,-0.399 8.183,6.851 17.351,16.195 0,0 60.946,62.059 136.442,62.059 79.543,0 127.769,-26.336 144.762,-78.922 1.07,0 9.699,7.297 19.218,16.238 0,0 65.977,62.684 144.184,62.684 110.55,0 165.81,-56.41 165.81,-169.278 l 0,-282.937 c 0,-13.082 -10.68,-23.762 -23.67,-23.762 l -21.22,0 c -13.08,0 -23.76,10.68 -23.76,23.762 l 0,265.547 c 0,13.082 -1.15,34.39 -2.49,47.383 0,0 -4.89,37.23 -19.62,51.91 -14.68,14.726 -42.53,30.476 -83.37,30.476 -54.36,0 -91.153,-18.687 -110.461,-39.105 -19.262,-20.418 -28.961,-51.024 -28.961,-108.594 l 0,-247.617 c 0,-13.082 -10.633,-23.762 -23.668,-23.762 l -21.219,0 c -13.078,0 -23.801,10.68 -23.801,23.762 l 0,259.18 c 0,13.078 -0.18,28.609 -0.488,34.527 -0.223,6 -4.227,20.769 -8.856,33.008 0,0 -26.113,60.191 -95.07,60.191 -93.601,0 -140.402,-42.484 -140.402,-144.187 l 0,-242.719 c 0,-13.082 -10.676,-23.762 -23.754,-23.762 l -21.223,0 c -12.988,0 -23.711,10.68 -23.711,23.762 l 0,421.609" /><path
         id="path18"
         style="fill:#6b6f76;fill-opacity:1;fill-rule:nonzero;stroke:none"
         d="m 1664.82,328.27 c 0,8.101 10.68,14.73 23.75,14.73 l 22.69,0 c 13.04,0 23.85,-3.918 24.03,-8.629 0.04,-4.723 -1.65,-19.09 -3.96,-31.902 0,0 -10.64,-59.571 -40.26,-79.008 -29.54,-19.441 -81.51,-29.141 -155.76,-29.141 -86.35,0 -143.02,15.75 -170.03,47.34 -26.96,31.539 -40.48,97.871 -40.48,198.942 0,93.558 13.61,156.375 40.71,188.453 27.18,32.074 80.3,48.047 159.53,48.047 86.35,0 142.94,-13.926 169.76,-41.684 26.83,-27.809 40.18,-86.352 40.18,-175.637 l 0,-13.133 c 0,-13.027 -10.68,-23.707 -23.72,-23.707 l -290.06,0 c -13.08,0 -23.04,-10.632 -22.24,-23.66 0,0 6.45,-97.34 22.24,-117.633 15.84,-20.328 52.94,-30.429 111.18,-30.429 55.3,0 91.15,4.851 107.66,14.461 16.64,9.609 24.78,30.519 24.78,62.59 m -23.67,148.152 c 12.99,0 23.62,4.976 23.45,11.027 -0.14,6.051 -1.34,21.711 -2.63,34.699 0,0 -5.96,60.063 -22.6,75.188 -16.77,15.258 -52.72,22.863 -107.97,22.863 -55.57,0 -91.69,-8.941 -108.15,-26.734 -16.59,-17.84 -24.82,-56.856 -24.82,-117.043 l 242.72,0 z m -47.24,373.336 c 10.45,7.875 25.26,5.695 32.96,-4.852 l 7.21,-9.828 c 7.74,-10.5 5.02,-24.691 -6.14,-31.5 L 1523.7,739.605 c -11.21,-6.894 -25.62,-4.269 -32.03,5.739 -6.49,9.965 -3.25,24.558 7.12,32.433 l 95.12,71.981" /><path
         id="path20"
         style="fill:#6b6f76;fill-opacity:1;fill-rule:nonzero;stroke:none"
         d="m 2068.49,670.25 c 13.08,0 23.71,-10.676 23.71,-23.711 l 0,-9.476 c 0,-13.036 -10.63,-23.758 -23.71,-23.758 l -133.07,0 c -13.08,0 -23.75,-2.27 -23.75,-15.348 l 0,-247.977 c 0,-13.031 3.02,-33.941 6.72,-46.492 0,0 15.57,-43.906 60.01,-43.906 44.17,0 66.24,30.789 66.24,75.629 l 0,-16.813 c 0.27,12.68 0.71,28.961 0.98,36.082 0.27,7.161 11.12,12.989 24.2,12.989 l 16.37,0 c 13.04,0 23.8,-7.828 23.98,-17.399 0.09,-9.609 -3.02,-44.351 -6.89,-56.808 0,0 -36.75,-98.942 -124.48,-98.942 -90.53,0 -135.82,38.442 -135.82,115.27 l 0,288.367 c 0,13.078 -10.68,15.348 -23.76,15.348 l -17.26,0 c -13.03,0 -23.76,10.722 -23.76,23.758 l 0,9.476 c 0,13.035 10.73,23.711 23.76,23.711 l 17.26,0 c 13.08,0 23.76,-6.051 23.76,6.984 l 0,82.125 c 0,12.993 10.63,23.754 23.71,23.754 l 21.22,0 c 13.12,0 23.76,-10.761 23.76,-23.754 l 0,-82.125 c 0,-13.035 10.67,-6.984 23.75,-6.984 l 133.07,0" /><path
         id="path22"
         style="fill:#6b6f76;fill-opacity:1;fill-rule:nonzero;stroke:none"
         d="m 2769.89,670.25 c 12.99,0 23.71,-10.676 23.71,-23.711 l 0,-622.789 C 2793.6,10.6289 2782.88,0 2769.89,0 l -21.27,0 c -13.03,0 -23.75,10.6289 -23.75,23.75 l 0,210.609 c 0,13.032 -0.27,24.02 -0.67,24.473 -0.49,0.398 -8.68,-6.453 -18.29,-15.223 0,0 -54.45,-49.289 -136.62,-49.289 -67.62,0 -114.78,17.621 -141.25,52.989 -26.51,35.269 -39.77,98.273 -39.77,188.851 0,90.621 13.39,153.434 40.22,188.445 26.87,35.055 75.09,52.497 144.76,52.497 76.61,0 127.77,-22.067 153.57,-66.243 0.85,0.801 0.89,12.145 0.05,25.227 l -0.54,10.453 c -0.84,13.035 9.26,23.711 22.29,23.711 l 21.27,0 z m -185.78,-50.047 c -50.72,0 -84,-12.234 -99.92,-36.793 -15.84,-24.558 -23.76,-75.898 -23.76,-154.101 0,-73.278 8.19,-121.278 24.56,-144.008 16.28,-22.781 50.63,-34.082 102.99,-34.082 53.29,0 89.15,11.703 107.48,35.062 18.28,23.399 27.49,69.438 27.49,138.09 0,83.141 -8.45,136.527 -25.35,160.242 -16.78,23.754 -54.64,35.59 -113.49,35.59" /><path
         id="path24"
         style="fill:#6b6f76;fill-opacity:1;fill-rule:nonzero;stroke:none"
         d="m 2274.35,670.238 -21.26,0 c -0.03,0 -0.06,-0.011 -0.09,-0.011 l -79.8,0 c -10.76,0 -19.62,-10.676 -19.62,-23.711 l 0,-9.477 c 0,-13.031 8.86,-23.711 19.62,-23.711 l 56.13,0 0,-388.457 c 0,-13.031 10.72,-23.711 23.76,-23.711 l 21.26,0 c 13.04,0 23.72,10.68 23.72,23.711 l 0,421.609 c 0,13.036 -10.68,23.758 -23.72,23.758" /><path
         id="path26"
         style="fill:#6b6f76;fill-opacity:1;fill-rule:nonzero;stroke:none"
         d="m 2274.35,870.922 -21.26,0 c -13.04,0 -23.76,-10.68 -23.76,-23.711 l 0,-29.586 c 0,-13.035 10.72,-23.758 23.76,-23.758 l 21.26,0 c 13.04,0 23.72,10.723 23.72,23.758 l 0,29.586 c 0,13.031 -10.68,23.711 -23.72,23.711" /><path
         id="path28"
         style="fill:#94c3eb;fill-opacity:1;fill-rule:nonzero;stroke:none"
         d="m 2807.16,974.973 c 29.05,99.477 70.16,225.867 128.08,310.877 58.86,86.49 84.48,113.13 188.89,138.01 84.44,20.06 304.88,47.02 387.63,29.89 49.69,-10.23 85.46,-25.45 115,-47.82 -33.15,-25.05 -62.55,-49.97 -80.7,-69.63 -32.08,-34.92 -54.81,-80.66 -57.93,-128.21 -6.98,-105.3 130.13,-330.055 233.87,-355.102 31.37,-7.609 78.21,-7.609 125.46,-4.629 -11.39,-24.468 -27.49,-48.355 -49.69,-70.777 -77.23,-78.164 -257.36,-223.285 -360.18,-261.141 -119,-43.781 -138.8,-59.972 -263.85,4.668 -147.08,76.032 -425.48,251.981 -366.58,453.864" /><path
         id="path30"
         style="fill:#a3da65;fill-opacity:1;fill-rule:nonzero;stroke:none"
         d="m 3626.45,1405.8 c 53.74,40.61 116.96,81.68 156.2,101.47 91.86,46.27 128.56,44.98 224.48,-6.27 262.43,-140.32 309.06,-269.82 137.78,-537.234 -47.96,-74.918 -76.07,-83.414 -168.97,-100.496 -31.58,-5.786 -81.01,-11.969 -129.45,-15.04 28.16,60.504 25.98,126.391 0.4,196.82 -29.72,81.63 -81.37,165.31 -125.06,239.79 -31.9,54.36 -58.86,93.2 -95.38,120.96" /><path
         id="path32"
         style="fill:#6b6f76;fill-opacity:1;fill-rule:nonzero;stroke:none"
         d="m 3545.82,1336.57 c 18.01,19.66 47.55,44.57 80.65,69.62 36.57,-27.81 63.49,-66.64 95.43,-121.01 43.64,-74.47 95.34,-158.15 125.01,-239.79 25.62,-70.421 28.69,-136.663 0.58,-197.124 -47.2,-3.024 -94.41,-2.621 -125.77,4.941 -103.75,25.09 -240.81,249.793 -233.92,355.093 3.25,47.61 25.9,93.34 58.02,128.27" /><path
         id="path34"
         style="fill:#6b6f76;fill-opacity:1;fill-rule:nonzero;stroke:none"
         d="m 3071.23,75.7305 c 0,-27.9414 -2.05,-40.2188 -10.28,-51.6485 -11.09,-16.52341 -31.66,-22.87106 -71.13,-22.87106 -68.28,0 -84.31,19.48046 -84.31,104.16806 0,77.91 18.1,99.5 84.72,99.5 41.53,0 64.15,-9.738 72.78,-31.34 3.7,-8.891 4.93,-17.777 4.93,-35.988 l -27.96,0 0,5.09 c 0,29.211 -11.51,37.679 -51.4,37.679 -24.26,0 -36.19,-2.961 -43.59,-11.429 -6.58,-7.621 -10.28,-30.911 -10.28,-66.481 0,-33.0311 3.7,-55.0506 11.51,-65.6287 5.76,-8.0508 19.33,-11.0118 48.94,-11.0118 41.12,0 48.11,7.6211 48.11,49.961 l 27.96,0" /><path
         id="path36"
         style="fill:#6b6f76;fill-opacity:1;fill-rule:nonzero;stroke:none"
         d="m 3141.95,167.199 c -5.75,-9.738 -8.22,-27.527 -8.22,-63.09 0,-71.1402 4.93,-78.3395 55.52,-78.3395 50.58,0 55.93,7.6211 55.93,77.0625 0,70.289 -5.35,77.488 -55.52,77.488 -28.38,0 -41.94,-3.808 -47.71,-13.121 z m 132.42,-64.789 c 0,-84.2616 -14.4,-101.19906 -85.12,-101.19906 -70.73,0 -84.72,16.93746 -84.72,103.32006 0,82.989 14.81,100.348 85.13,100.348 70.73,0 84.71,-16.938 84.71,-102.469" /><path
         id="path38"
         style="fill:#6b6f76;fill-opacity:1;fill-rule:nonzero;stroke:none"
         d="m 3344.27,201.922 -0.41,-27.102 0.41,-0.429 c 9.04,21.597 27.96,30.488 64.15,30.488 31.66,0 52.64,-8.469 62.51,-25.399 4.93,-8.468 6.57,-19.48 6.57,-46.582 l 0,-128.72612 -27.96,0 0,126.18712 c 0,21.172 -0.82,27.102 -4.52,34.723 -4.94,11.008 -16.86,15.238 -40.71,15.238 -42.36,0 -58.81,-16.09 -58.81,-57.16 l 0,-118.98812 -29.19,0 0,197.75012 27.96,0" /><path
         id="path40"
         style="fill:#6b6f76;fill-opacity:1;fill-rule:nonzero;stroke:none"
         d="m 3553.18,201.922 -0.41,-27.102 0.41,-0.429 c 9.04,21.597 27.95,30.488 64.15,30.488 31.66,0 52.63,-8.469 62.51,-25.399 4.93,-8.468 6.57,-19.48 6.57,-46.582 l 0,-128.72612 -27.96,0 0,126.18712 c 0,21.172 -0.82,27.102 -4.52,34.723 -4.94,11.008 -16.87,15.238 -40.72,15.238 -42.35,0 -58.8,-16.09 -58.8,-57.16 l 0,-118.98812 -29.19,0 0,197.75012 27.96,0" /><path
         id="path42"
         style="fill:#6b6f76;fill-opacity:1;fill-rule:nonzero;stroke:none"
         d="m 3875.98,120.191 c -0.41,27.528 -0.82,32.188 -4.11,41.918 -4.93,14.403 -17.28,19.481 -48.12,19.481 -48.11,0 -57.16,-9.738 -56.75,-61.399 l 108.98,0 z m 28.79,-56.3121 c 0.41,-3.3906 0.41,-7.1992 0.41,-8.0469 0,-40.6523 -21.39,-54.62106 -82.66,-54.62106 -69.5,0 -85.54,19.05076 -85.54,102.46906 0,81.718 16.46,101.199 86.36,101.199 47.3,0 66.21,-9.309 75.67,-37.68 4.52,-13.98 5.76,-25.41 5.76,-69.449 l -138.18,0 c 0.41,-62.668 7.41,-71.9805 55.52,-71.9805 48.12,0 54.28,4.2305 53.87,38.1094 l 28.79,0" /><path
         id="path44"
         style="fill:#6b6f76;fill-opacity:1;fill-rule:nonzero;stroke:none"
         d="m 4107.91,75.7305 c 0,-27.9414 -2.05,-40.2188 -10.28,-51.6485 -11.1,-16.52341 -31.66,-22.87106 -71.13,-22.87106 -68.28,0 -84.31,19.48046 -84.31,104.16806 0,77.91 18.09,99.5 84.72,99.5 41.53,0 64.15,-9.738 72.78,-31.34 3.7,-8.891 4.93,-17.777 4.93,-35.988 l -27.96,0 0,5.09 c 0,29.211 -11.51,37.679 -51.4,37.679 -24.26,0 -36.19,-2.961 -43.59,-11.429 -6.58,-7.621 -10.28,-30.911 -10.28,-66.481 0,-33.0311 3.7,-55.0506 11.51,-65.6287 5.76,-8.0508 19.33,-11.0118 48.94,-11.0118 41.12,0 48.11,7.6211 48.11,49.961 l 27.96,0" /><path
         id="path46"
         style="fill:#6b6f76;fill-opacity:1;fill-rule:nonzero;stroke:none"
         d="m 4247.32,177.781 -74.03,0 0,-121.1013 c 0,-24.5586 5.34,-30.9102 26.73,-30.9102 23.44,0 28.79,6.7696 28.79,37.6914 0,2.961 0,5.5 -0.41,10.5782 l 25.91,0 c 0.41,-5.9297 0.41,-11.8594 0.41,-14.8203 0,-40.6485 -16.46,-58.00786 -55.11,-58.00786 -29.61,0 -45.23,8.05078 -51.41,25.41016 -2.46,7.1875 -2.87,12.2773 -2.87,30.0586 l 0,121.1013 -26.73,0 0,24.141 26.73,0 0,47.418 27.96,0 0,-47.418 74.03,0 0,-24.141" /></g></g></svg>