<?xml version="1.0" encoding="UTF-8" standalone="no"?>
<svg
   xmlns:dc="http://purl.org/dc/elements/1.1/"
   xmlns:cc="http://creativecommons.org/ns#"
   xmlns:rdf="http://www.w3.org/1999/02/22-rdf-syntax-ns#"
   xmlns:svg="http://www.w3.org/2000/svg"
   xmlns="http://www.w3.org/2000/svg"
   viewBox="0 0 413.37616 150"
   height="150"
   width="413.37616"
   xml:space="preserve"
   version="1.1"
   id="svg2"><metadata
     id="metadata8"><rdf:RDF><cc:Work
         rdf:about=""><dc:format>image/svg+xml</dc:format><dc:type
           rdf:resource="http://purl.org/dc/dcmitype/StillImage" /><dc:title></dc:title></cc:Work></rdf:RDF></metadata><defs
     id="defs6" /><g
     transform="matrix(1.25,0,0,-1.25,0,150.00001)"
     id="g10"><g
       transform="scale(0.07777599,0.07777599)"
       id="g12"><path
         id="path14"
         style="fill:#6b6f76;fill-opacity:1;fill-rule:nonzero;stroke:none"
         d="m 88.4023,539.488 -44.5234,0 c -13.043,0 -22.3008,10.586 -20.5664,23.516 0,0 17.5469,59.523 42.293,78.398 24.7461,18.828 64.7465,36.653 136.8325,36.653 78.296,0 131.183,-11.555 158.71,-34.668 27.508,-23.078 41.266,-67.071 41.266,-131.918 l 0,-286.309 c 0,-13.031 -10.676,-23.75 -23.746,-23.75 l -21.281,0 c -13.051,0 -22.59,10.602 -21.25,23.629 l 0.371,3.371 c 1.379,12.981 2.16,23.711 1.797,23.86 -0.418,0.121 -9.395,-6.04 -19.969,-13.77 0,0 -60.211,-43.98 -140.469,-43.98 C 59.2891,194.52 0,242.18 0,337.531 c 0,56.68 13.2578,95.84 39.8047,117.43 26.5156,21.641 74.5113,32.437 143.9183,32.437 82.582,0 132.05,-16.199 148.425,-48.648 0.821,0.262 1.473,11.18 1.473,24.25 l 0,9.441 c 0,13.098 -0.875,34.481 -1.961,47.469 0,0 -5.379,64.832 -20.164,80.75 -14.754,15.852 -47.004,23.836 -96.789,23.836 -84.504,0 -126.7656,-23.785 -126.7656,-71.25 0,-2.32 0.1367,-6.851 0.4609,-13.758 z M 198.965,433.82 c -52.711,0 -87.035,-5.582 -102.9142,-16.691 C 80.1641,405.98 72.1719,382.07 72.1719,345.422 c 0,-38.031 7.8789,-63.141 23.6328,-75.481 15.7033,-12.25 47.6523,-18.41 95.8163,-18.41 96.953,0 145.395,29.489 145.395,88.43 0,37.027 -9.399,61.918 -28.227,74.73 -18.797,12.778 -55.394,19.129 -109.824,19.129" /><path
         id="path16"
         style="fill:#6b6f76;fill-opacity:1;fill-rule:nonzero;stroke:none"
         d="m 529.668,647.418 c 0,13.066 10.719,23.762 23.762,23.762 l 21.25,0 c 13.097,0 23.554,-10.696 23.312,-23.762 l -0.5,-23.203 c -0.328,-13.098 -0.125,-24.102 0.227,-24.531 0.39,-0.391 8.215,6.886 17.375,16.222 0,0 61.051,62.149 136.652,62.149 79.641,0 127.965,-26.367 144.973,-79.035 1.086,0 9.707,7.304 19.222,16.3 0,0 66.09,62.735 144.419,62.735 110.68,0 166.04,-56.485 166.04,-169.504 l 0,-283.34 c 0,-13.082 -10.71,-23.77 -23.72,-23.77 l -21.25,0 c -13.11,0 -23.79,10.688 -23.79,23.77 l 0,265.937 c 0,13.102 -1.17,34.442 -2.5,47.422 0,0 -4.91,37.317 -19.63,52.004 -14.73,14.727 -42.59,30.496 -83.51,30.496 -54.418,0 -91.246,-18.672 -110.598,-39.121 -19.3,-20.476 -28.984,-51.121 -28.984,-108.777 l 0,-247.961 c 0,-13.082 -10.684,-23.77 -23.73,-23.77 l -21.25,0 c -13.102,0 -23.809,10.688 -23.809,23.77 l 0,259.539 c 0,13.109 -0.207,28.66 -0.488,34.57 -0.227,6.012 -4.262,20.821 -8.883,33.078 0,0 -26.156,60.274 -95.215,60.274 -93.73,0 -140.594,-42.539 -140.594,-144.41 l 0,-243.051 c 0,-13.082 -10.672,-23.77 -23.769,-23.77 l -21.25,0 c -13.043,0 -23.762,10.688 -23.762,23.77 l 0,422.207" /><path
         id="path18"
         style="fill:#6b6f76;fill-opacity:1;fill-rule:nonzero;stroke:none"
         d="m 1667.16,328.73 c 0,8.079 10.68,14.739 23.78,14.739 l 22.72,0 c 13.08,0 23.9,-3.91 24.07,-8.66 0.06,-4.727 -1.65,-19.11 -3.96,-31.938 0,0 -10.67,-59.621 -40.32,-79.09 -29.59,-19.48 -81.63,-29.222 -155.97,-29.222 -86.47,0 -143.23,15.781 -170.27,47.402 -27.02,31.598 -40.56,98.027 -40.56,199.25 0,93.68 13.64,156.59 40.8,188.695 27.22,32.153 80.41,48.149 159.73,48.149 86.46,0 143.14,-13.957 169.99,-41.739 26.86,-27.882 40.23,-86.496 40.23,-175.925 l 0,-13.11 c 0,-13.082 -10.66,-23.742 -23.74,-23.742 l -290.45,0 c -13.11,0 -23.1,-10.668 -22.27,-23.711 0,0 6.44,-97.488 22.27,-117.816 15.87,-20.332 53.01,-30.453 111.33,-30.453 55.38,0 91.29,4.851 107.81,14.5 16.64,9.621 24.81,30.543 24.81,62.671 z m -23.72,148.34 c 13.01,0 23.69,5.008 23.49,11.059 -0.12,6.07 -1.31,21.723 -2.6,34.742 0,0 -6,60.152 -22.67,75.309 -16.76,15.254 -52.77,22.89 -108.11,22.89 -55.66,0 -91.81,-8.957 -108.31,-26.777 -16.61,-17.891 -24.84,-56.934 -24.84,-117.223 l 243.04,0 z m -47.27,373.868 c 10.43,7.867 25.27,5.703 32.99,-4.836 l 7.23,-9.856 c 7.73,-10.508 5,-24.75 -6.17,-31.543 l -104.39,-64.09 c -11.19,-6.867 -25.64,-4.258 -32.07,5.758 -6.5,9.973 -3.24,24.598 7.14,32.484 l 95.27,72.083" /><path
         id="path20"
         style="fill:#6b6f76;fill-opacity:1;fill-rule:nonzero;stroke:none"
         d="m 2071.4,671.18 c 13.09,0 23.76,-10.715 23.76,-23.762 l 0,-9.465 c 0,-13.074 -10.67,-23.797 -23.76,-23.797 l -133.27,0 c -13.07,0 -23.75,-2.285 -23.75,-15.39 l 0,-248.305 c 0,-13.063 3.02,-33.973 6.73,-46.551 0,0 15.56,-43.969 60.07,-43.969 44.26,0 66.32,30.809 66.32,75.731 l 0,-16.832 c 0.27,12.699 0.75,28.969 0.99,36.14 0.3,7.129 11.16,12.969 24.23,12.969 l 16.39,0 c 13.08,0 23.85,-7.828 24.03,-17.418 0.08,-9.59 -3.02,-44.39 -6.92,-56.851 0,0 -36.78,-99.121 -124.62,-99.121 -90.66,0 -136.03,38.5 -136.03,115.453 0,9.226 0,27.386 0,40.449 l 0,248.305 c 0,13.105 -10.69,15.39 -23.79,15.39 l -17.28,0 c -13.07,0 -23.79,10.723 -23.79,23.797 l 0,9.465 c 0,13.047 10.72,23.762 23.79,23.762 l 17.28,0 c 13.1,0 23.79,-6.075 23.79,6.992 l 0,82.234 c 0,13.032 10.66,23.785 23.75,23.785 l 21.25,0 c 13.15,0 23.81,-10.753 23.81,-23.785 l 0,-82.234 c 0,-13.067 10.68,-6.992 23.75,-6.992 l 133.27,0" /><path
         id="path22"
         style="fill:#6b6f76;fill-opacity:1;fill-rule:nonzero;stroke:none"
         d="m 2773.8,671.18 c 13.01,0 23.74,-10.715 23.74,-23.762 l 0,-623.6485 C 2797.54,10.6289 2786.81,0 2773.8,0 l -21.3,0 c -13.11,0 -23.77,10.6289 -23.77,23.7695 l 0,210.8905 c 0,13.09 -0.29,24.09 -0.72,24.52 -0.47,0.39 -8.65,-6.45 -18.34,-15.231 0,0 -54.48,-49.39 -136.73,-49.39 -67.76,0 -114.95,17.671 -141.47,53.082 -26.56,35.328 -39.81,98.429 -39.81,189.121 0,90.758 13.39,153.636 40.26,188.691 26.88,35.121 75.18,52.602 144.96,52.602 76.67,0 127.96,-22.129 153.79,-66.328 0.8,0.789 0.87,12.144 0.03,25.222 l -0.57,10.5 c -0.78,13.055 9.26,23.731 22.37,23.731 l 21.3,0 z m -186.05,-50.11 c -50.82,0 -84.16,-12.285 -100.03,-36.867 -15.91,-24.558 -23.82,-75.992 -23.82,-154.324 0,-73.367 8.16,-121.43 24.55,-144.188 16.36,-22.793 50.77,-34.132 103.17,-34.132 53.38,0 89.28,11.711 107.65,35.132 18.32,23.399 27.52,69.508 27.52,138.289 0,83.231 -8.44,136.676 -25.38,160.446 -16.8,23.769 -54.71,35.644 -113.66,35.644" /><path
         id="path24"
         style="fill:#6b6f76;fill-opacity:1;fill-rule:nonzero;stroke:none"
         d="m 2277.56,671.18 -21.3,0 c -0.1,0 -0.19,-0.032 -0.29,-0.032 l -79.7,0 c -10.81,0 -19.64,-10.703 -19.64,-23.757 l 0,-9.493 c 0,-13.039 8.83,-23.742 19.64,-23.742 l 56.22,0 0,-388.996 c 0,-13.031 10.7,-23.75 23.77,-23.75 l 21.3,0 c 13.08,0 23.75,10.719 23.75,23.75 l 0,422.231 c 0,13.054 -10.67,23.789 -23.75,23.789" /><path
         id="path26"
         style="fill:#6b6f76;fill-opacity:1;fill-rule:nonzero;stroke:none"
         d="m 2277.56,872.129 -21.3,0 c -13.07,0 -23.77,-10.684 -23.77,-23.754 l 0,-29.629 c 0,-13.062 10.7,-23.777 23.77,-23.777 l 21.3,0 c 13.08,0 23.75,10.715 23.75,23.777 l 0,29.629 c 0,13.07 -10.67,23.754 -23.75,23.754" /><path
         id="path28"
         style="fill:#94c3eb;fill-opacity:1;fill-rule:nonzero;stroke:none"
         d="m 2811.12,976.32 c 29.08,99.59 70.24,226.17 128.26,311.33 58.96,86.6 84.57,113.26 189.15,138.17 84.53,20.12 305.28,47.08 388.18,29.95 49.76,-10.27 85.58,-25.48 115.15,-47.91 -33.18,-25.07 -62.69,-50 -80.79,-69.7 -32.15,-34.98 -54.89,-80.78 -58.06,-128.4 -6.97,-105.46 130.33,-330.502 234.23,-355.6 31.38,-7.609 78.31,-7.609 125.64,-4.625 -11.4,-24.508 -27.59,-48.422 -49.82,-70.89 -77.3,-78.247 -257.73,-223.598 -360.62,-261.485 -119.18,-43.871 -139.01,-60.07 -264.25,4.641 -147.31,76.144 -426.06,252.347 -367.07,454.519" /><path
         id="path30"
         style="fill:#f89931;fill-opacity:1;fill-rule:nonzero;stroke:none"
         d="m 3631.53,1407.73 c 53.81,40.69 117.1,81.81 156.42,101.62 92.03,46.35 128.78,45.04 224.79,-6.27 262.81,-140.54 309.5,-270.22 138,-538.002 -48.02,-75.012 -76.18,-83.519 -169.19,-100.613 -31.6,-5.797 -81.13,-12.024 -129.63,-15.055 28.17,60.547 26.02,126.563 0.37,197.06 -29.77,81.77 -81.48,165.54 -125.23,240.11 -31.94,54.45 -58.91,93.36 -95.53,121.15" /><path
         id="path32"
         style="fill:#6b6f76;fill-opacity:1;fill-rule:nonzero;stroke:none"
         d="m 3550.78,1338.41 c 18.1,19.69 47.67,44.61 80.82,69.7 36.59,-27.82 63.58,-66.73 95.53,-121.17 43.72,-74.56 95.44,-158.39 125.16,-240.1 25.68,-70.52 28.78,-136.883 0.63,-197.43 -47.3,-2.992 -94.52,-2.629 -125.95,4.953 -103.9,25.133 -241.2,250.177 -234.24,355.617 3.19,47.65 25.93,93.44 58.05,128.43" /><path
         id="path34"
         style="fill:#6b6f76;fill-opacity:1;fill-rule:nonzero;stroke:none"
         d="m 2942.79,201.57 -0.82,-30.058 0.82,-0.422 c 11.52,23.711 29.61,33.449 62.92,33.449 32.07,0 52.23,-11.008 59.21,-33.449 l 0.42,0 c 12.75,23.711 32.07,33.449 66.2,33.449 49.76,0 67.85,-19.059 67.85,-71.57 l 0,-129.14087 -27.95,0 0,132.11287 c 0,33.879 -9.88,44.039 -41.95,44.039 -28.38,0 -47.29,-8.05 -53.46,-22.871 -3.71,-8.468 -4.94,-19.05 -4.94,-38.949 l 0,-114.33187 -27.95,0 0,129.14087 c -1.25,26.679 -1.25,26.679 -3.71,31.761 -4.94,9.739 -18.5,15.25 -39.07,15.25 -41.94,0 -57.57,-17.359 -57.57,-63.941 l 0,-112.21087 -27.96,0 0,197.74187 27.96,0" /><path
         id="path36"
         style="fill:#6b6f76;fill-opacity:1;fill-rule:nonzero;stroke:none"
         d="m 3380.74,119.852 c -0.41,27.519 -0.82,32.179 -4.11,41.918 -4.93,14.402 -17.27,19.48 -48.11,19.48 -48.12,0 -57.16,-9.738 -56.75,-61.398 l 108.97,0 z m 28.79,-56.3207 c 0.41,-3.3829 0.41,-7.2032 0.41,-8.043 0,-40.6485 -21.39,-54.617206 -82.65,-54.617206 -69.51,0 -85.54,19.050806 -85.54,102.468906 0,81.719 16.45,101.199 86.36,101.199 47.29,0 66.21,-9.32 75.66,-37.687 4.52,-13.973 5.76,-25.403 5.76,-69.4418 l -138.17,0 c 0.41,-62.6719 7.4,-71.9805 55.52,-71.9805 48.11,0 54.27,4.2305 53.86,38.1016 l 28.79,0" /><path
         id="path38"
         style="fill:#6b6f76;fill-opacity:1;fill-rule:nonzero;stroke:none"
         d="m 3489.3,169.82 c -8.64,-8.898 -13.16,-30.07 -13.16,-62.679 0,-67.7426 9.05,-81.7113 53.46,-81.7113 20.57,0 34.13,3.8008 42.35,11.8516 8.65,8.039 12.76,32.5976 12.76,71.1407 0,55.887 -12.35,71.558 -55.52,71.558 -18.51,0 -33.72,-3.808 -39.89,-10.16 z m 123.37,-165.99187 -27.96,0 1.23,25.83207 -0.41,0 c -9.47,-20.33207 -27.96,-28.789106 -62.1,-28.789106 -27.55,0 -46.88,6.769536 -58.39,19.898406 -13.16,14.8203 -18.1,38.5313 -18.1,84.6915 0,74.09 18.51,99.078 74.44,99.078 20.14,0 36.19,-3.391 48.11,-9.738 7.81,-4.242 11.11,-8.473 14.4,-18.211 l 0.82,0.422 0,109.25 27.96,0 0,-282.43387" /><path
         id="path40"
         style="fill:#6b6f76;fill-opacity:1;fill-rule:nonzero;stroke:none"
         d="m 3688.33,3.82813 -27.96,0 0,197.74187 27.96,0 0,-197.74187 z m 0,249.81987 -27.96,0 0,32.614 27.96,0 0,-32.614" /><path
         id="path42"
         style="fill:#6b6f76;fill-opacity:1;fill-rule:nonzero;stroke:none"
         d="m 3896.41,75.3906 c 0,-27.9492 -2.05,-40.2304 -10.29,-51.6601 -11.09,-16.51175 -31.66,-22.859406 -71.13,-22.859406 -68.27,0 -84.31,19.468706 -84.31,104.159906 0,77.91 18.1,99.508 84.72,99.508 41.53,0 64.15,-9.738 72.78,-31.34 3.71,-8.89 4.94,-17.777 4.94,-35.988 l -27.96,0 0,5.078 c 0,29.223 -11.52,37.691 -51.41,37.691 -24.26,0 -36.18,-2.968 -43.58,-11.429 -6.59,-7.629 -10.29,-30.922 -10.29,-66.481 0,-33.0309 3.7,-55.0505 11.52,-65.6403 5.75,-8.0391 19.32,-11 48.93,-11 41.13,0 48.12,7.6211 48.12,49.9609 l 27.96,0" /><path
         id="path44"
         style="fill:#6b6f76;fill-opacity:1;fill-rule:nonzero;stroke:none"
         d="m 3958.49,65.6484 c 0,-33.0273 8.64,-40.2187 48.52,-40.2187 25.09,0 42.78,3.8008 51.41,11.4297 5.76,4.6523 8.22,12.6992 8.22,24.9804 0,30.0586 -12.33,38.9612 -54.28,38.9612 -44.82,0 -53.87,-5.9299 -53.87,-35.1526 z m -21.38,80.4536 c 0.82,47.429 15.21,58.437 76.48,58.437 62.1,0 79.78,-15.668 79.78,-70.301 l 0,-130.40987 -27.96,0 2.05,21.17187 -0.41,0.4297 C 4055.13,6.78906 4039.09,0.871094 4001.67,0.871094 c -53.46,0 -72.37,15.660206 -72.37,60.117206 0,22.8711 6.99,43.1917 17.67,51.2417 10.29,8.04 29.2,11.852 55.93,11.852 20.57,0 37.01,-2.543 48.53,-7.191 6.58,-2.539 9.46,-5.512 13.16,-13.129 l 0.82,0.418 0,23.718 c 0,46.153 -7.81,54.204 -50.17,54.204 -38.66,0 -50.17,-6.782 -50.17,-29.653 l 0,-6.347 -27.96,0" /><path
         id="path46"
         style="fill:#6b6f76;fill-opacity:1;fill-rule:nonzero;stroke:none"
         d="m 4139.84,3.82813 27.9609,0 0,282.434 -27.9609,0 0,-282.434 z" /></g></g></svg>