<?xml version="1.0" encoding="UTF-8" standalone="no"?>
<svg
   xmlns:dc="http://purl.org/dc/elements/1.1/"
   xmlns:cc="http://creativecommons.org/ns#"
   xmlns:rdf="http://www.w3.org/1999/02/22-rdf-syntax-ns#"
   xmlns:svg="http://www.w3.org/2000/svg"
   xmlns="http://www.w3.org/2000/svg"
   viewBox="0 0 389.56186 150"
   height="150"
   width="389.56186"
   xml:space="preserve"
   version="1.1"
   id="svg2"><metadata
     id="metadata8"><rdf:RDF><cc:Work
         rdf:about=""><dc:format>image/svg+xml</dc:format><dc:type
           rdf:resource="http://purl.org/dc/dcmitype/StillImage" /><dc:title></dc:title></cc:Work></rdf:RDF></metadata><defs
     id="defs6" /><g
     transform="matrix(1.25,0,0,-1.25,0,149.99999)"
     id="g10"><g
       transform="scale(0.07329535,0.07329535)"
       id="g12"><path
         id="path14"
         style="fill:#6b6f76;fill-opacity:1;fill-rule:nonzero;stroke:none"
         d="m 88.4453,644.48 -44.5351,0 c -13.0547,0 -22.2618,10.469 -20.6055,23.262 0,0 17.582,58.863 42.2851,77.531 24.793,18.672 64.8242,36.293 136.8982,36.293 78.274,0 131.16,-11.425 158.711,-34.257 27.481,-22.887 41.239,-66.364 41.239,-130.539 l 0,-283.282 c 0,-12.968 -10.684,-23.468 -23.731,-23.468 l -21.301,0 c -13.054,0 -22.582,10.441 -21.23,23.289 l 0.379,3.312 c 1.336,12.891 2.152,23.5 1.746,23.738 -0.41,0.051 -9.352,-6.109 -19.965,-13.668 0,0 -60.168,-43.511 -140.461,-43.511 C 59.3125,303.18 0,350.352 0,444.629 c 0,56.133 13.2617,94.812 39.8398,116.242 26.5079,21.367 74.4612,32.078 143.8942,32.078 82.559,0 132.028,-16.09 148.446,-48.187 0.812,0.316 1.468,11.047 1.468,23.988 l 0,9.422 c 0,12.969 -0.89,34.058 -1.964,46.937 0,0 -5.368,64.098 -20.164,79.86 -14.735,15.761 -47.012,23.613 -96.829,23.613 -84.468,0 -126.7652,-23.613 -126.7652,-70.519 0,-2.243 0.1875,-6.809 0.5195,-13.583 M 199.012,539.93 c -52.719,0 -87.047,-5.52 -102.9261,-16.551 C 80.1914,512.391 72.25,488.719 72.25,452.48 c 0,-37.628 7.8242,-62.519 23.6133,-74.671 15.6757,-12.161 47.6207,-18.27 95.7537,-18.27 96.969,0 145.449,29.199 145.449,87.481 0,36.64 -9.437,61.3 -28.253,73.949 -18.848,12.679 -55.399,18.961 -109.801,18.961" /><path
         id="path16"
         style="fill:#6b6f76;fill-opacity:1;fill-rule:nonzero;stroke:none"
         d="m 529.695,751.203 c 0,12.977 10.766,23.504 23.762,23.504 l 21.273,0 c 13.059,0 23.528,-10.527 23.262,-23.504 l -0.465,-22.973 c -0.332,-12.91 -0.086,-23.789 0.235,-24.222 0.379,-0.434 8.199,6.777 17.316,16.086 0,0 61.117,61.472 136.715,61.472 79.609,0 127.937,-26.113 144.953,-78.316 1.016,0 9.758,7.273 19.223,16.203 0,0 66.129,62.113 144.401,62.113 110.7,0 166.03,-55.894 166.03,-167.675 l 0,-280.403 c 0,-12.968 -10.65,-23.468 -23.69,-23.468 l -21.25,0 c -13.11,0 -23.8,10.5 -23.8,23.468 l 0,263.121 c 0,12.922 -1.13,34.02 -2.48,46.911 0,0 -4.91,36.906 -19.66,51.445 -14.68,14.601 -42.55,30.187 -83.52,30.187 -54.387,0 -91.219,-18.468 -110.57,-38.648 -19.25,-20.328 -28.965,-50.633 -28.965,-107.695 l 0,-245.321 c 0,-12.968 -10.688,-23.468 -23.699,-23.468 l -21.305,0 c -13.059,0 -23.789,10.5 -23.789,23.468 l 0,256.782 c 0,12.968 -0.16,28.359 -0.481,34.199 -0.277,5.929 -4.246,20.625 -8.929,32.719 0,0 -26.114,59.648 -95.196,59.648 -93.73,0 -140.589,-42.109 -140.589,-142.906 l 0,-240.442 c 0,-12.968 -10.688,-23.468 -23.747,-23.468 l -21.273,0 c -12.996,0 -23.762,10.5 -23.762,23.468 l 0,417.715" /><path
         id="path18"
         style="fill:#6b6f76;fill-opacity:1;fill-rule:nonzero;stroke:none"
         d="m 1667.18,435.879 c 0,8.051 10.69,14.633 23.83,14.633 l 22.71,0 c 13.08,0 23.94,-3.903 24.04,-8.551 0.09,-4.66 -1.66,-18.902 -3.97,-31.641 0,0 -10.63,-59.039 -40.29,-78.23 -29.62,-19.25 -81.62,-28.969 -156,-28.969 -86.44,0 -143.22,15.707 -170.25,47.027 -27.02,31.172 -40.53,96.872 -40.53,197.082 0,92.653 13.62,154.887 40.74,186.676 27.29,31.782 80.46,47.66 159.72,47.66 86.48,0 143.17,-13.843 170.06,-41.351 26.81,-27.512 40.2,-85.559 40.2,-173.965 l 0,-12.969 c 0,-13.031 -10.64,-23.551 -23.72,-23.551 l -290.44,0 c -13.18,0 -23.11,-10.531 -22.32,-23.449 0,0 6.51,-96.492 22.32,-116.609 15.86,-20.133 53.01,-30.133 111.3,-30.133 55.39,0 91.24,4.832 107.85,14.391 16.59,9.492 24.75,30.172 24.75,61.949 m -23.75,146.801 c 13.05,0 23.67,4.98 23.52,10.968 -0.12,6.024 -1.31,21.512 -2.59,34.34 0,0 -6.01,59.473 -22.67,74.535 -16.75,15.122 -52.77,22.629 -108.08,22.629 -55.69,0 -91.82,-8.875 -108.31,-26.464 -16.62,-17.711 -24.84,-56.36 -24.84,-116.008 l 242.97,0 z m -47.22,369.875 c 10.43,7.82 25.25,5.711 32.97,-4.758 l 7.25,-9.703 c 7.74,-10.453 4.94,-24.512 -6.19,-31.289 L 1525.86,843.48 c -11.21,-6.859 -25.65,-4.242 -32.05,5.645 -6.5,9.859 -3.25,24.313 7.13,32.133 l 95.27,71.297" /><path
         id="path20"
         style="fill:#6b6f76;fill-opacity:1;fill-rule:nonzero;stroke:none"
         d="m 2071.46,774.766 c 13.05,0 23.76,-10.586 23.76,-23.473 l 0,-9.449 c 0,-12.856 -10.71,-23.5 -23.76,-23.5 l -133.3,0 c -13.05,0 -23.76,-2.266 -23.76,-15.211 l 0,-245.703 c 0,-12.86 3.01,-33.649 6.67,-46.059 0,0 15.62,-43.48 60.17,-43.48 44.2,0 66.32,30.437 66.32,74.937 l 0,-16.687 c 0.2,12.558 0.7,28.668 0.99,35.711 0.26,7.117 11.08,12.91 24.24,12.91 l 16.31,0 c 13.1,0 23.95,-7.731 24.08,-17.242 0.05,-9.508 -3,-43.95 -6.95,-56.25 0,0 -36.77,-98.09 -124.59,-98.09 -90.68,0 -136.06,38.039 -136.06,114.199 l 0,285.754 c 0,12.945 -10.67,15.211 -23.78,15.211 l -17.27,0 c -13.1,0 -23.76,10.644 -23.76,23.5 l 0,9.449 c 0,12.887 10.66,23.473 23.76,23.473 l 17.27,0 c 13.11,0 23.78,-6.02 23.78,6.859 l 0,81.387 c 0,12.894 10.68,23.539 23.8,23.539 l 21.21,0 c 13.13,0 23.81,-10.645 23.81,-23.539 l 0,-81.387 c 0,-12.879 10.71,-6.859 23.76,-6.859 l 133.3,0" /><path
         id="path22"
         style="fill:#6b6f76;fill-opacity:1;fill-rule:nonzero;stroke:none"
         d="m 2773.79,774.766 c 13.03,0 23.7,-10.586 23.7,-23.473 l 0,-643.715 c 0,-12.9686 -10.67,-23.4569 -23.7,-23.4569 l -21.26,0 c -13.11,0 -23.79,10.4883 -23.79,23.4569 l 0,235.301 c 0,12.941 -0.32,23.82 -0.73,24.25 -0.46,0.383 -8.66,-6.43 -18.38,-15.09 0,0 -54.43,-48.859 -136.68,-48.859 -67.81,0 -114.92,17.422 -141.5,52.492 -26.58,35.047 -39.79,97.398 -39.79,187.137 0,89.812 13.38,152.039 40.26,186.703 26.92,34.726 75.19,52.054 145.05,52.054 76.54,0 127.87,-21.898 153.76,-65.605 0.78,0.727 0.84,11.984 0,24.894 l -0.65,10.438 c -0.7,12.945 9.34,23.473 22.45,23.473 l 21.26,0 z m -186.06,-49.614 c -50.83,0 -84.1,-12.101 -100.01,-36.441 -15.91,-24.34 -23.82,-75.18 -23.82,-152.711 0,-72.578 8.2,-120.102 24.54,-142.672 16.41,-22.476 50.75,-33.789 103.19,-33.789 53.39,0 89.27,11.641 107.65,34.789 18.32,23.141 27.52,68.801 27.52,136.852 0,82.351 -8.49,135.226 -25.43,158.722 -16.72,23.442 -54.64,35.25 -113.64,35.25" /><path
         id="path24"
         style="fill:#6b6f76;fill-opacity:1;fill-rule:nonzero;stroke:none"
         d="m 2277.6,774.766 -101.31,0 c -10.82,0 -19.6,-10.586 -19.6,-23.563 l 0,-9.387 c 0,-12.886 8.78,-23.472 19.6,-23.472 l 56.18,0 0,-384.856 c 0,-12.906 10.7,-23.468 23.82,-23.468 l 21.31,0 c 13.07,0 23.77,10.562 23.77,23.468 l 0,417.805 c 0,12.887 -10.7,23.473 -23.77,23.473" /><path
         id="path26"
         style="fill:#6b6f76;fill-opacity:1;fill-rule:nonzero;stroke:none"
         d="m 2277.6,973.551 -21.31,0 c -13.12,0 -23.82,-10.516 -23.82,-23.446 l 0,-29.355 c 0,-12.937 10.7,-23.523 23.82,-23.523 l 21.31,0 c 13.07,0 23.77,10.586 23.77,23.523 l 0,29.355 c 0,12.93 -10.7,23.446 -23.77,23.446" /><path
         id="path28"
         style="fill:#94c3eb;fill-opacity:1;fill-rule:nonzero;stroke:none"
         d="m 2811.16,1076.66 c 29.05,98.52 70.2,223.75 128.22,308.01 58.97,85.7 84.59,112.09 189.17,136.75 84.54,19.89 305.26,46.53 388.17,29.6 49.77,-10.14 85.59,-25.22 115.17,-47.38 -33.18,-24.87 -62.7,-49.5 -80.79,-69 -32.19,-34.59 -54.93,-79.89 -58.07,-127.07 -6.99,-104.29 130.36,-326.957 234.22,-351.82 31.47,-7.504 78.34,-7.504 125.63,-4.52 -11.4,-24.257 -27.57,-47.929 -49.82,-70.148 -77.21,-77.41 -257.74,-221.25 -360.6,-258.641 -119.16,-43.48 -139.04,-59.511 -264.27,4.528 -147.33,75.324 -426.04,249.652 -367.03,449.691" /><path
         id="path30"
         style="fill:#8f9194;fill-opacity:1;fill-rule:nonzero;stroke:none"
         d="m 3631.54,1503.52 c 53.8,40.22 117.11,80.89 156.42,100.52 92.07,45.85 128.72,44.54 224.81,-6.24 262.77,-139.01 309.48,-267.31 137.96,-532.28 -48.02,-74.231 -76.08,-82.625 -169.2,-99.52 -31.64,-5.785 -81.08,-11.91 -129.55,-14.887 28.08,59.847 25.96,125.207 0.32,195.017 -29.79,80.83 -81.5,163.71 -125.17,237.51 -31.99,53.91 -58.98,92.36 -95.59,119.88" /><path
         id="path32"
         style="fill:#6b6f76;fill-opacity:1;fill-rule:nonzero;stroke:none"
         d="m 3550.85,1434.88 c 18.08,19.5 47.65,44.13 80.72,68.96 36.64,-27.49 63.63,-66 95.62,-119.89 43.76,-73.73 95.44,-156.64 125.22,-237.54 25.56,-69.77 28.74,-135.45 0.55,-195.297 -47.28,-2.941 -94.54,-2.633 -125.94,4.867 -103.88,24.852 -241.26,247.51 -234.22,351.87 3.1,47.13 25.91,92.43 58.05,127.03" /><path
         id="path34"
         style="fill:#6b6f76;fill-opacity:1;fill-rule:nonzero;stroke:none"
         d="m 2943.59,193.082 c 0,-71.141 8.22,-83.422 55.52,-83.422 42.76,0 52.22,13.551 52.22,77.059 0,63.941 -9.05,77.492 -51.81,77.492 -44.42,0 -55.93,-14.82 -55.93,-71.129 z m -28.78,177.406 27.96,0 0,-110.078 0.82,-0.43 c 3.29,11.008 7.81,16.09 16.45,20.321 11.52,5.508 27.96,8.469 46.06,8.469 56.34,0 74.43,-25.399 74.43,-104.161 0,-74.949 -19.32,-99.5074 -77.72,-99.5074 -32.9,0 -50.17,8.0468 -60.86,27.5274 l -0.41,0 1.23,-24.5587 -27.96,0 0,282.4177" /><path
         id="path36"
         style="fill:#6b6f76;fill-opacity:1;fill-rule:nonzero;stroke:none"
         d="m 3145.49,149.891 c 0,-33.032 8.65,-40.231 48.53,-40.231 25.09,0 42.77,3.809 51.4,11.43 5.77,4.66 8.23,12.711 8.23,24.98 0,30.071 -12.34,38.961 -54.28,38.961 -44.82,0 -53.88,-5.922 -53.88,-35.14 z m -21.37,80.449 c 0.82,47.422 15.21,58.43 76.48,58.43 62.1,0 79.78,-15.661 79.78,-70.29 l 0,-130.4097 -27.96,0 2.05,21.1677 -0.41,0.422 c -11.93,-18.6287 -27.96,-24.5584 -65.38,-24.5584 -53.46,0 -72.38,15.6684 -72.38,60.1284 0,22.872 7,43.192 17.68,51.239 10.28,8.043 29.2,11.851 55.93,11.851 20.56,0 37.01,-2.539 48.52,-7.199 6.58,-2.543 9.47,-5.5 13.17,-13.121 l 0.82,0.422 0,23.707 c 0,46.16 -7.82,54.199 -50.17,54.199 -38.66,0 -50.18,-6.769 -50.18,-29.637 l 0,-6.351 -27.95,0" /><path
         id="path38"
         style="fill:#6b6f76;fill-opacity:1;fill-rule:nonzero;stroke:none"
         d="m 3354.81,285.809 -0.41,-27.098 0.41,-0.422 c 9.04,21.59 27.96,30.481 64.15,30.481 31.66,0 52.64,-8.469 62.51,-25.399 4.93,-8.473 6.57,-19.48 6.57,-46.582 l 0,-128.7187 -27.96,0 0,126.1797 c 0,21.172 -0.82,27.102 -4.52,34.719 -4.94,11.011 -16.86,15.242 -40.71,15.242 -42.36,0 -58.81,-16.082 -58.81,-57.16 l 0,-118.9807 -29.19,0 0,197.7387 27.96,0" /><path
         id="path40"
         style="fill:#6b6f76;fill-opacity:1;fill-rule:nonzero;stroke:none"
         d="m 3563.71,206.629 12.74,0 68.27,79.18 34.95,0 -81.83,-91.039 97.05,-106.6997 -38.24,0 -81.43,95.2697 -11.51,0 0,-95.2697 -27.96,0 0,282.4177 27.96,0 0,-163.859" /><path
         id="path42"
         style="fill:#6b6f76;fill-opacity:1;fill-rule:nonzero;stroke:none"
         d="m 3747.92,88.0703 -27.95,0 0,197.7387 27.95,0 0,-197.7387 z m 0,249.8207 -27.95,0 0,32.597 27.95,0 0,-32.597" /><path
         id="path44"
         style="fill:#6b6f76;fill-opacity:1;fill-rule:nonzero;stroke:none"
         d="m 3823.58,285.809 -0.41,-27.098 0.41,-0.422 c 9.04,21.59 27.96,30.481 64.15,30.481 31.66,0 52.64,-8.469 62.51,-25.399 4.93,-8.473 6.57,-19.48 6.57,-46.582 l 0,-128.7187 -27.96,0 0,126.1797 c 0,21.172 -0.82,27.102 -4.52,34.719 -4.94,11.011 -16.86,15.242 -40.71,15.242 -42.36,0 -58.81,-16.082 -58.81,-57.16 l 0,-118.9807 -29.19,0 0,197.7387 27.96,0" /><path
         id="path46"
         style="fill:#6b6f76;fill-opacity:1;fill-rule:nonzero;stroke:none"
         d="m 4026.72,190.539 c 0,-69.019 7.82,-80.879 53.46,-80.879 44,0 54.29,15.25 54.29,82.149 0,58.851 -10.29,72.402 -54.29,72.402 -44.41,0 -53.46,-12.699 -53.46,-73.672 z M 4163.25,75.3594 c 0,-24.5508 -2.46,-37.2578 -9.05,-48.2578 C 4142.69,8.46094 4119.66,0 4081,0 c -39.47,0 -59.63,7.19141 -69.08,24.5508 -5.34,9.3203 -6.99,18.6289 -6.99,40.2305 l 26.72,0 c 0.83,-34.7227 7.82,-40.2305 50.59,-40.2305 41.53,0 53.05,10.5898 53.05,48.2695 l 0,39.8087 -0.82,0 c -4.12,-11.008 -8.65,-15.6681 -18.51,-20.3282 -11.1,-5.082 -24.68,-7.1992 -42.77,-7.1992 -25.5,0 -44,5.9297 -55.93,17.7894 -14.8,15.238 -19.74,34.718 -19.74,80.031 0,49.957 4.12,69.437 18.1,85.527 11.92,13.973 30.84,20.321 60.45,20.321 32.49,0 49.75,-8.469 60.04,-30.059 l 0.41,0.418 -1.23,26.68 27.96,0 0,-210.4496" /></g></g></svg>