<?xml version="1.0" encoding="UTF-8" standalone="no"?>
<svg
   xmlns:dc="http://purl.org/dc/elements/1.1/"
   xmlns:cc="http://creativecommons.org/ns#"
   xmlns:rdf="http://www.w3.org/1999/02/22-rdf-syntax-ns#"
   xmlns:svg="http://www.w3.org/2000/svg"
   xmlns="http://www.w3.org/2000/svg"
   viewBox="0 0 732.64007 150"
   height="150"
   width="732.64008"
   xml:space="preserve"
   version="1.1"
   id="svg2"><metadata
     id="metadata8"><rdf:RDF><cc:Work
         rdf:about=""><dc:format>image/svg+xml</dc:format><dc:type
           rdf:resource="http://purl.org/dc/dcmitype/StillImage" /><dc:title></dc:title></cc:Work></rdf:RDF></metadata><defs
     id="defs6" /><g
     transform="matrix(1.25,0,0,-1.25,0,538.32915)"
     id="g10"><g
       transform="matrix(0.18027672,0,0,0.18027672,0,-249.39033)"
       id="g12"><path
         id="path14"
         style="fill:#9da2a9;fill-opacity:1;fill-rule:nonzero;stroke:none"
         d="m 153.75,3209.4 c 0,-21.25 -8.555,-31.88 -25.625,-31.88 l -102.5,0 c -6.6406,0 -12.5781,3.21 -17.79297,9.63 C 2.59766,3193.56 0,3200.82 0,3208.91 l 0,450.98 c 0,20.91 8.53516,31.38 25.625,31.38 l 102.5,0 c 13.75,0 22.07,-6.85 24.922,-20.54 0.469,-2.84 0.703,-17.23 0.703,-43.21 l -102.5,0 0,-386.25 102.5,0 0,-31.87" /><path
         id="path16"
         style="fill:#9da2a9;fill-opacity:1;fill-rule:nonzero;stroke:none"
         d="m 308.238,3357.52 0,270 -51.25,0 0,-270 51.25,0 z m 51.25,-147.89 c 0,-21.4 -8.554,-32.11 -25.625,-32.11 l -25.625,0 0,116.25 -51.25,0 0,-116.25 -25.625,0 c -6.64,0 -12.578,3.32 -17.793,9.98 -5.234,6.66 -7.832,14.05 -7.832,22.13 l 0,450.26 c 0,20.91 8.535,31.38 25.625,31.38 l 102.5,0 c 17.071,0 25.625,-10.47 25.625,-31.38 l 0,-450.26" /><path
         id="path18"
         style="fill:#9da2a9;fill-opacity:1;fill-rule:nonzero;stroke:none"
         d="m 565.227,3209.59 c 0,-21.38 -8.555,-32.07 -25.625,-32.07 l -102.5,0 c -6.641,0 -12.582,3.21 -17.793,9.63 -5.239,6.41 -7.832,13.67 -7.832,21.76 l 0,450.25 c 0,21.41 8.535,32.11 25.625,32.11 l 25.625,0 0,-450 51.25,0 0,83.75 25.625,0 c 7.109,0 13.164,-3.1 18.14,-9.27 4.985,-6.18 7.485,-13.77 7.485,-22.8 l 0,-83.36" /><path
         id="path20"
         style="fill:#9da2a9;fill-opacity:1;fill-rule:nonzero;stroke:none"
         d="m 719.711,3357.52 0,270 -51.25,0 0,-270 51.25,0 z m 51.25,-147.89 c 0,-21.4 -8.555,-32.11 -25.625,-32.11 l -25.625,0 0,116.25 -51.25,0 0,-116.25 -25.625,0 c -6.641,0 -12.578,3.32 -17.793,9.98 -5.234,6.66 -7.832,14.05 -7.832,22.13 l 0,450.26 c 0,20.91 8.535,31.38 25.625,31.38 l 102.5,0 c 17.07,0 25.625,-10.47 25.625,-31.38 l 0,-450.26" /><path
         id="path22"
         style="fill:#9da2a9;fill-opacity:1;fill-rule:nonzero;stroke:none"
         d="m 976.699,3209.63 c 0,-21.4 -8.554,-32.11 -25.625,-32.11 l -25.625,0 0,450 -51.25,0 0,-450 -25.625,0 c -6.64,0 -12.578,3.32 -17.793,9.98 -5.234,6.66 -7.832,14.05 -7.832,22.13 l 0,450.26 c 0,20.91 8.535,31.38 25.625,31.38 l 102.5,0 c 17.071,0 25.625,-10.47 25.625,-31.38 l 0,-450.26" /><path
         id="path24"
         style="fill:#9da2a9;fill-opacity:1;fill-rule:nonzero;stroke:none"
         d="m 1131.19,3241.27 0,386.25 -51.25,0 0,-386.25 51.25,0 z m 51.25,-31.64 c 0,-21.4 -8.56,-32.11 -25.63,-32.11 l -128.12,0 0,513.75 128.12,0 c 17.07,0 25.63,-10.47 25.63,-31.38 l 0,-450.26" /><path
         id="path26"
         style="fill:#9da2a9;fill-opacity:1;fill-rule:nonzero;stroke:none"
         d="m 1336.92,3357.52 0,270 -51.25,0 0,-270 51.25,0 z m 51.25,-147.89 c 0,-21.4 -8.55,-32.11 -25.62,-32.11 l -25.63,0 0,116.25 -51.25,0 0,-116.25 -25.62,0 c -6.64,0 -12.58,3.32 -17.79,9.98 -5.24,6.66 -7.84,14.05 -7.84,22.13 l 0,450.26 c 0,20.91 8.54,31.38 25.63,31.38 l 102.5,0 c 17.07,0 25.62,-10.47 25.62,-31.38 l 0,-450.26" /><path
         id="path28"
         style="fill:#9da2a9;fill-opacity:1;fill-rule:nonzero;stroke:none"
         d="m 2531.1,3209.4 c 0,-21.25 -8.55,-31.88 -25.62,-31.88 l -102.5,0 c -6.64,0 -12.58,3.21 -17.79,9.63 -5.24,6.41 -7.84,13.67 -7.84,21.76 l 0,450.98 c 0,20.91 8.54,31.38 25.63,31.38 l 102.5,0 c 13.75,0 22.07,-6.85 24.92,-20.54 0.47,-2.84 0.7,-17.23 0.7,-43.21 l -102.5,0 0,-386.25 102.5,0 0,-31.87" /><path
         id="path30"
         style="fill:#9da2a9;fill-opacity:1;fill-rule:nonzero;stroke:none"
         d="m 2685.58,3241.27 0,386.25 -51.25,0 0,-386.25 51.25,0 z m 51.25,-31.64 c 0,-21.4 -8.56,-32.11 -25.63,-32.11 l -102.5,0 c -6.64,0 -12.58,3.21 -17.79,9.63 -5.24,6.41 -7.83,13.67 -7.83,21.76 l 0,450.98 c 0,20.91 8.53,31.38 25.62,31.38 l 102.5,0 c 17.07,0 25.63,-10.47 25.63,-31.38 l 0,-450.26" /><path
         id="path32"
         style="fill:#9da2a9;fill-opacity:1;fill-rule:nonzero;stroke:none"
         d="m 3045.07,3209.63 c 0,-16.66 -5.94,-26.89 -17.79,-30.68 -2.86,-0.96 -14.01,-1.43 -33.46,-1.43 l 0,450 -51.25,0 0,-450 -51.25,0 0,450 -51.25,0 0,-450 -25.63,0 c -6.64,0 -12.57,3.32 -17.79,9.98 -5.23,6.66 -7.83,14.05 -7.83,22.13 l 0,450.26 c 0,20.91 8.53,31.38 25.62,31.38 l 205,0 c 17.07,0 25.63,-10.47 25.63,-31.38 l 0,-450.26" /><path
         id="path34"
         style="fill:#9da2a9;fill-opacity:1;fill-rule:nonzero;stroke:none"
         d="m 3199.93,3357.52 0,270 -51.25,0 0,-270 51.25,0 z m 51.25,-31.7 c 0,-8.55 -2.62,-16.03 -7.83,-22.44 -5.23,-6.4 -11.15,-9.61 -17.79,-9.61 l -76.88,0 0,-116.25 -25.62,0 c -6.64,0 -12.58,3.32 -17.8,9.98 -5.23,6.66 -7.83,14.05 -7.83,22.13 l 0,450.26 c 0,20.91 8.54,31.38 25.63,31.38 l 102.5,0 c 17.07,0 25.62,-10.45 25.62,-31.34 l 0,-334.11" /><path
         id="path36"
         style="fill:#2b5ab1;fill-opacity:1;fill-rule:nonzero;stroke:none"
         d="m 1855.28,3268.9 c -12.17,-16.67 -31.24,-17.22 -63.98,-0.27 -65.92,33.91 -146.19,66.91 -243.14,90.03 -18.8,4.48 -35.05,11.69 -48.38,22.08 -13.36,10.35 -18.68,20.16 -15.27,29.35 62.76,171.27 201.87,304.46 376.54,360.2 24.11,7.88 65.13,-7.7 114.71,-46.43 98.92,-77.29 178.08,-158.45 242.3,-236.66 25.73,-31.6 32.46,-48.84 23.67,-52.95 -2.04,-0.73 -16.18,1.36 -42.06,2.6 -59.48,69.98 -132.18,143.82 -223.17,215.08 -140.03,-33.98 -258.24,-124.53 -327.23,-248.59 90.32,-32.75 164.16,-72.13 224.78,-110.12 -6.53,-7.84 -12.79,-15.95 -18.77,-24.32" /><path
         id="path38"
         style="fill:#2b5ab1;fill-opacity:1;fill-rule:nonzero;stroke:none"
         d="m 1930.09,3584.79 c 23.02,7.33 61.35,-7.38 107.11,-43.5 91.39,-72.18 164.56,-147.85 223.93,-220.74 11.55,-14.18 18.23,-26.27 20.61,-36.15 2.34,-9.9 -0.43,-13.99 -8.01,-12.99 -141.42,18.63 -275.13,-42.36 -354.17,-153.12 -11.22,-15.33 -28.87,-15.76 -59.29,0.02 -61.12,31.55 -135.47,62.32 -225.22,84.03 -36.12,8.62 -57.84,19.93 -60.84,36.25 -0.19,3.27 4.18,19.09 16.13,45.89 99.22,-22 182.57,-54.57 251.92,-89.3 69.71,101.62 181.4,168.41 307.39,180.09 -68.57,67.3 -151.99,135.48 -253.8,197.59 11.24,4.33 22.66,8.31 34.24,11.93" /><g
         transform="scale(10,10)"
         id="g40" /></g></g></svg>